<mxfile host="app.diagrams.net" modified="2024-02-08T06:19:42.906Z" agent="Mozilla/5.0 (Windows NT 10.0; Win64; x64) AppleWebKit/537.36 (KHTML, like Gecko) Chrome/121.0.0.0 Safari/537.36" version="23.1.2" etag="hH5tnxd6KL_cNAxDrOgJ" type="github">
  <diagram name="페이지-1" id="x0bSWsOs77GGYdYSJ1VZ">
    <mxGraphModel>
      <root>
        <mxCell id="0" />
        <mxCell id="1" parent="0" />
      </root>
    </mxGraphModel>
  </diagram>
</mxfile>
